<mxfile host="app.diagrams.net" modified="2024-03-29T01:38:56.146Z" agent="Mozilla/5.0 (Windows NT 10.0; Win64; x64) AppleWebKit/537.36 (KHTML, like Gecko) Chrome/121.0.0.0 Safari/537.36 OPR/107.0.0.0 (Edition Campaign 34)" etag="SHVVpQNYklD_Ac2mc7nC" version="24.1.0" type="github">
  <diagram name="Page-0" id="Page-0">
    <mxGraphModel dx="2392" dy="1406" grid="1" gridSize="10" guides="1" tooltips="1" connect="1" arrows="1" fold="1" page="1" pageScale="1" pageWidth="2116" pageHeight="1587" math="0" shadow="0">
      <root>
        <mxCell id="0" />
        <mxCell id="1" parent="0" />
        <mxCell id="ODpNkwMlUyrVwhqXqqqU-3" value="VPC" style="points=[[0,0],[0.25,0],[0.5,0],[0.75,0],[1,0],[1,0.25],[1,0.5],[1,0.75],[1,1],[0.75,1],[0.5,1],[0.25,1],[0,1],[0,0.75],[0,0.5],[0,0.25]];outlineConnect=0;gradientColor=none;html=1;whiteSpace=wrap;fontSize=12;fontStyle=0;container=1;pointerEvents=0;collapsible=0;recursiveResize=0;shape=mxgraph.aws4.group;grIcon=mxgraph.aws4.group_vpc2;strokeColor=#8C4FFF;fillColor=none;verticalAlign=top;align=left;spacingLeft=30;fontColor=#AAB7B8;" vertex="1" parent="1">
          <mxGeometry x="90" y="630" width="1800" height="1000" as="geometry" />
        </mxCell>
        <mxCell id="ODpNkwMlUyrVwhqXqqqU-4" value="Availability Zone" style="fillColor=none;strokeColor=#147EBA;verticalAlign=top;fontStyle=0;fontColor=#147EBA;whiteSpace=wrap;html=1;" vertex="1" parent="ODpNkwMlUyrVwhqXqqqU-3">
          <mxGeometry x="70" y="50" width="760" height="920" as="geometry" />
        </mxCell>
        <mxCell id="ODpNkwMlUyrVwhqXqqqU-7" value="Availability Zone" style="fillColor=none;strokeColor=#147EBA;verticalAlign=top;fontStyle=0;fontColor=#147EBA;whiteSpace=wrap;html=1;" vertex="1" parent="ODpNkwMlUyrVwhqXqqqU-3">
          <mxGeometry x="950" y="50" width="760" height="920" as="geometry" />
        </mxCell>
        <mxCell id="ODpNkwMlUyrVwhqXqqqU-10" value="Public subnet" style="points=[[0,0],[0.25,0],[0.5,0],[0.75,0],[1,0],[1,0.25],[1,0.5],[1,0.75],[1,1],[0.75,1],[0.5,1],[0.25,1],[0,1],[0,0.75],[0,0.5],[0,0.25]];outlineConnect=0;gradientColor=none;html=1;whiteSpace=wrap;fontSize=12;fontStyle=0;container=1;pointerEvents=0;collapsible=0;recursiveResize=0;shape=mxgraph.aws4.group;grIcon=mxgraph.aws4.group_security_group;grStroke=0;strokeColor=#7AA116;fillColor=#F2F6E8;verticalAlign=top;align=left;spacingLeft=30;fontColor=#248814;dashed=0;" vertex="1" parent="ODpNkwMlUyrVwhqXqqqU-3">
          <mxGeometry x="110" y="130" width="640" height="360" as="geometry" />
        </mxCell>
        <mxCell id="ODpNkwMlUyrVwhqXqqqU-15" value="" style="sketch=0;outlineConnect=0;fontColor=#232F3E;gradientColor=none;fillColor=#8C4FFF;strokeColor=none;dashed=0;verticalLabelPosition=bottom;verticalAlign=top;align=center;html=1;fontSize=12;fontStyle=0;aspect=fixed;pointerEvents=1;shape=mxgraph.aws4.nat_gateway;" vertex="1" parent="ODpNkwMlUyrVwhqXqqqU-10">
          <mxGeometry x="24.75" y="120" width="100" height="100" as="geometry" />
        </mxCell>
        <mxCell id="ODpNkwMlUyrVwhqXqqqU-11" value="Public subnet" style="points=[[0,0],[0.25,0],[0.5,0],[0.75,0],[1,0],[1,0.25],[1,0.5],[1,0.75],[1,1],[0.75,1],[0.5,1],[0.25,1],[0,1],[0,0.75],[0,0.5],[0,0.25]];outlineConnect=0;gradientColor=none;html=1;whiteSpace=wrap;fontSize=12;fontStyle=0;container=1;pointerEvents=0;collapsible=0;recursiveResize=0;shape=mxgraph.aws4.group;grIcon=mxgraph.aws4.group_security_group;grStroke=0;strokeColor=#7AA116;fillColor=#F2F6E8;verticalAlign=top;align=left;spacingLeft=30;fontColor=#248814;dashed=0;" vertex="1" parent="ODpNkwMlUyrVwhqXqqqU-3">
          <mxGeometry x="1030" y="130" width="640" height="360" as="geometry" />
        </mxCell>
        <mxCell id="ODpNkwMlUyrVwhqXqqqU-12" value="Private subnet" style="points=[[0,0],[0.25,0],[0.5,0],[0.75,0],[1,0],[1,0.25],[1,0.5],[1,0.75],[1,1],[0.75,1],[0.5,1],[0.25,1],[0,1],[0,0.75],[0,0.5],[0,0.25]];outlineConnect=0;gradientColor=none;html=1;whiteSpace=wrap;fontSize=12;fontStyle=0;container=1;pointerEvents=0;collapsible=0;recursiveResize=0;shape=mxgraph.aws4.group;grIcon=mxgraph.aws4.group_security_group;grStroke=0;strokeColor=#00A4A6;fillColor=#E6F6F7;verticalAlign=top;align=left;spacingLeft=30;fontColor=#147EBA;dashed=0;" vertex="1" parent="ODpNkwMlUyrVwhqXqqqU-3">
          <mxGeometry x="110" y="530" width="640" height="400" as="geometry" />
        </mxCell>
        <mxCell id="ODpNkwMlUyrVwhqXqqqU-50" style="edgeStyle=orthogonalEdgeStyle;rounded=0;orthogonalLoop=1;jettySize=auto;html=1;flowAnimation=1;textShadow=0;ignoreEdge=0;orthogonal=0;enumerate=0;comic=0;backgroundOutline=0;snapToPoint=0;" edge="1" parent="ODpNkwMlUyrVwhqXqqqU-3" source="ODpNkwMlUyrVwhqXqqqU-13" target="ODpNkwMlUyrVwhqXqqqU-15">
          <mxGeometry relative="1" as="geometry">
            <Array as="points">
              <mxPoint x="1350" y="440" />
              <mxPoint x="185" y="440" />
            </Array>
          </mxGeometry>
        </mxCell>
        <mxCell id="ODpNkwMlUyrVwhqXqqqU-13" value="Private subnet" style="points=[[0,0],[0.25,0],[0.5,0],[0.75,0],[1,0],[1,0.25],[1,0.5],[1,0.75],[1,1],[0.75,1],[0.5,1],[0.25,1],[0,1],[0,0.75],[0,0.5],[0,0.25]];outlineConnect=0;gradientColor=none;html=1;whiteSpace=wrap;fontSize=12;fontStyle=0;container=1;pointerEvents=0;collapsible=0;recursiveResize=0;shape=mxgraph.aws4.group;grIcon=mxgraph.aws4.group_security_group;grStroke=0;strokeColor=#00A4A6;fillColor=#E6F6F7;verticalAlign=top;align=left;spacingLeft=30;fontColor=#147EBA;dashed=0;" vertex="1" parent="ODpNkwMlUyrVwhqXqqqU-3">
          <mxGeometry x="1030" y="530" width="640" height="400" as="geometry" />
        </mxCell>
        <mxCell id="ODpNkwMlUyrVwhqXqqqU-49" style="edgeStyle=orthogonalEdgeStyle;rounded=0;orthogonalLoop=1;jettySize=auto;html=1;flowAnimation=1;textShadow=0;ignoreEdge=0;orthogonal=0;enumerate=0;comic=0;backgroundOutline=0;snapToPoint=0;" edge="1" parent="ODpNkwMlUyrVwhqXqqqU-3" source="ODpNkwMlUyrVwhqXqqqU-14" target="ODpNkwMlUyrVwhqXqqqU-18">
          <mxGeometry relative="1" as="geometry" />
        </mxCell>
        <mxCell id="ODpNkwMlUyrVwhqXqqqU-14" value="" style="fontColor=#0066CC;verticalAlign=top;verticalLabelPosition=bottom;labelPosition=center;align=center;html=1;outlineConnect=0;fillColor=#CCCCCC;strokeColor=#6881B3;gradientColor=none;gradientDirection=north;strokeWidth=2;shape=mxgraph.networks.load_balancer;" vertex="1" parent="ODpNkwMlUyrVwhqXqqqU-3">
          <mxGeometry x="712.5" y="290" width="375" height="110" as="geometry" />
        </mxCell>
        <mxCell id="ODpNkwMlUyrVwhqXqqqU-47" style="edgeStyle=orthogonalEdgeStyle;rounded=0;orthogonalLoop=1;jettySize=auto;html=1;flowAnimation=1;textShadow=0;ignoreEdge=0;orthogonal=0;enumerate=0;comic=0;backgroundOutline=0;snapToPoint=0;" edge="1" parent="ODpNkwMlUyrVwhqXqqqU-3" source="ODpNkwMlUyrVwhqXqqqU-12" target="ODpNkwMlUyrVwhqXqqqU-15">
          <mxGeometry relative="1" as="geometry">
            <Array as="points">
              <mxPoint x="185" y="490" />
              <mxPoint x="185" y="490" />
            </Array>
          </mxGeometry>
        </mxCell>
        <mxCell id="ODpNkwMlUyrVwhqXqqqU-16" value="" style="outlineConnect=0;dashed=0;verticalLabelPosition=bottom;verticalAlign=top;align=center;html=1;shape=mxgraph.aws3.rds_db_instance;fillColor=#2E73B8;gradientColor=none;" vertex="1" parent="ODpNkwMlUyrVwhqXqqqU-3">
          <mxGeometry x="150" y="620" width="69.5" height="86" as="geometry" />
        </mxCell>
        <mxCell id="ODpNkwMlUyrVwhqXqqqU-18" value="" style="rounded=1;whiteSpace=wrap;html=1;fillColor=none;" vertex="1" parent="ODpNkwMlUyrVwhqXqqqU-3">
          <mxGeometry x="400" y="740" width="1000" height="180" as="geometry" />
        </mxCell>
        <mxCell id="ODpNkwMlUyrVwhqXqqqU-19" value="" style="sketch=0;outlineConnect=0;fontColor=#232F3E;gradientColor=none;fillColor=#ED7100;strokeColor=none;dashed=0;verticalLabelPosition=bottom;verticalAlign=top;align=center;html=1;fontSize=12;fontStyle=0;aspect=fixed;pointerEvents=1;shape=mxgraph.aws4.container_1;" vertex="1" parent="ODpNkwMlUyrVwhqXqqqU-3">
          <mxGeometry x="490" y="810" width="128" height="82.67" as="geometry" />
        </mxCell>
        <mxCell id="ODpNkwMlUyrVwhqXqqqU-20" value="" style="sketch=0;outlineConnect=0;fontColor=#232F3E;gradientColor=none;fillColor=#ED7100;strokeColor=none;dashed=0;verticalLabelPosition=bottom;verticalAlign=top;align=center;html=1;fontSize=12;fontStyle=0;aspect=fixed;pointerEvents=1;shape=mxgraph.aws4.container_1;" vertex="1" parent="ODpNkwMlUyrVwhqXqqqU-3">
          <mxGeometry x="1170" y="810" width="128" height="82.67" as="geometry" />
        </mxCell>
        <mxCell id="ODpNkwMlUyrVwhqXqqqU-25" value="&lt;h3&gt;&lt;font style=&quot;font-size: 14px;&quot;&gt;NAT GATEWAY&lt;/font&gt;&lt;/h3&gt;" style="text;strokeColor=none;align=center;fillColor=none;html=1;verticalAlign=middle;whiteSpace=wrap;rounded=0;" vertex="1" parent="ODpNkwMlUyrVwhqXqqqU-3">
          <mxGeometry x="122.13" y="220" width="125.25" height="30" as="geometry" />
        </mxCell>
        <mxCell id="ODpNkwMlUyrVwhqXqqqU-28" value="&lt;h3&gt;&lt;font style=&quot;font-size: 14px;&quot;&gt;FARGATE CONTAINER&lt;/font&gt;&lt;/h3&gt;" style="text;strokeColor=none;align=center;fillColor=none;html=1;verticalAlign=middle;whiteSpace=wrap;rounded=0;" vertex="1" parent="ODpNkwMlUyrVwhqXqqqU-3">
          <mxGeometry x="469.69" y="890" width="168.63" height="30" as="geometry" />
        </mxCell>
        <mxCell id="ODpNkwMlUyrVwhqXqqqU-29" value="&lt;h3&gt;&lt;font style=&quot;font-size: 14px;&quot;&gt;FARGATE CONTAINER&lt;/font&gt;&lt;/h3&gt;" style="text;strokeColor=none;align=center;fillColor=none;html=1;verticalAlign=middle;whiteSpace=wrap;rounded=0;" vertex="1" parent="ODpNkwMlUyrVwhqXqqqU-3">
          <mxGeometry x="1150" y="892.67" width="168" height="30" as="geometry" />
        </mxCell>
        <mxCell id="ODpNkwMlUyrVwhqXqqqU-30" value="&lt;h3&gt;&lt;font style=&quot;font-size: 14px;&quot;&gt;10.0.1.0/24&lt;/font&gt;&lt;/h3&gt;" style="text;strokeColor=none;align=center;fillColor=none;html=1;verticalAlign=middle;whiteSpace=wrap;rounded=0;textShadow=1;labelBorderColor=none;labelBackgroundColor=none;" vertex="1" parent="ODpNkwMlUyrVwhqXqqqU-3">
          <mxGeometry x="219.5" y="130" width="70.5" height="30" as="geometry" />
        </mxCell>
        <mxCell id="ODpNkwMlUyrVwhqXqqqU-31" value="&lt;h3&gt;&lt;font style=&quot;font-size: 14px;&quot;&gt;10.0.3.0/24&lt;/font&gt;&lt;/h3&gt;" style="text;strokeColor=none;align=center;fillColor=none;html=1;verticalAlign=middle;whiteSpace=wrap;rounded=0;textShadow=1;labelBorderColor=none;labelBackgroundColor=none;" vertex="1" parent="ODpNkwMlUyrVwhqXqqqU-3">
          <mxGeometry x="679.5" y="530" width="70.5" height="30" as="geometry" />
        </mxCell>
        <mxCell id="ODpNkwMlUyrVwhqXqqqU-32" value="&lt;h3&gt;&lt;font style=&quot;font-size: 14px;&quot;&gt;10.0.2.0/24&lt;/font&gt;&lt;/h3&gt;" style="text;strokeColor=none;align=center;fillColor=none;html=1;verticalAlign=middle;whiteSpace=wrap;rounded=0;textShadow=1;labelBorderColor=none;labelBackgroundColor=none;" vertex="1" parent="ODpNkwMlUyrVwhqXqqqU-3">
          <mxGeometry x="1140" y="130" width="70.5" height="30" as="geometry" />
        </mxCell>
        <mxCell id="ODpNkwMlUyrVwhqXqqqU-33" value="&lt;h3&gt;&lt;font style=&quot;font-size: 14px;&quot;&gt;10.0.4.0/24&lt;/font&gt;&lt;/h3&gt;" style="text;strokeColor=none;align=center;fillColor=none;html=1;verticalAlign=middle;whiteSpace=wrap;rounded=0;textShadow=1;labelBorderColor=none;labelBackgroundColor=none;" vertex="1" parent="ODpNkwMlUyrVwhqXqqqU-3">
          <mxGeometry x="1150" y="530" width="70.5" height="30" as="geometry" />
        </mxCell>
        <mxCell id="ODpNkwMlUyrVwhqXqqqU-34" value="&lt;h3 style=&quot;font-size: 22px;&quot;&gt;&lt;font style=&quot;font-size: 22px;&quot;&gt;ECS SERVICE&lt;/font&gt;&lt;/h3&gt;" style="text;strokeColor=none;align=center;fillColor=none;html=1;verticalAlign=middle;whiteSpace=wrap;rounded=0;fontSize=22;" vertex="1" parent="ODpNkwMlUyrVwhqXqqqU-3">
          <mxGeometry x="830" y="820" width="125.25" height="30" as="geometry" />
        </mxCell>
        <mxCell id="ODpNkwMlUyrVwhqXqqqU-35" value="&lt;h3&gt;&lt;font style=&quot;font-size: 14px;&quot;&gt;APPLICATION LOAD BALANCER&lt;/font&gt;&lt;/h3&gt;" style="text;strokeColor=none;align=center;fillColor=none;html=1;verticalAlign=middle;whiteSpace=wrap;rounded=0;" vertex="1" parent="ODpNkwMlUyrVwhqXqqqU-3">
          <mxGeometry x="786.6200000000001" y="350" width="168.63" height="30" as="geometry" />
        </mxCell>
        <mxCell id="ODpNkwMlUyrVwhqXqqqU-45" style="edgeStyle=orthogonalEdgeStyle;rounded=0;orthogonalLoop=1;jettySize=auto;html=1;entryX=1;entryY=0.89;entryDx=0;entryDy=0;entryPerimeter=0;flowAnimation=1;textShadow=0;ignoreEdge=0;orthogonal=0;enumerate=0;comic=0;backgroundOutline=0;snapToPoint=0;" edge="1" parent="ODpNkwMlUyrVwhqXqqqU-3" source="ODpNkwMlUyrVwhqXqqqU-19" target="ODpNkwMlUyrVwhqXqqqU-16">
          <mxGeometry relative="1" as="geometry" />
        </mxCell>
        <mxCell id="ODpNkwMlUyrVwhqXqqqU-46" style="edgeStyle=orthogonalEdgeStyle;rounded=0;orthogonalLoop=1;jettySize=auto;html=1;entryX=0.5;entryY=0.98;entryDx=0;entryDy=0;entryPerimeter=0;flowAnimation=1;textShadow=0;ignoreEdge=0;orthogonal=0;enumerate=0;comic=0;backgroundOutline=0;snapToPoint=0;" edge="1" parent="ODpNkwMlUyrVwhqXqqqU-3" source="ODpNkwMlUyrVwhqXqqqU-20" target="ODpNkwMlUyrVwhqXqqqU-16">
          <mxGeometry relative="1" as="geometry">
            <Array as="points">
              <mxPoint x="1080" y="851" />
              <mxPoint x="1080" y="770" />
              <mxPoint x="185" y="770" />
            </Array>
          </mxGeometry>
        </mxCell>
        <mxCell id="ODpNkwMlUyrVwhqXqqqU-27" value="&lt;h3&gt;&lt;font style=&quot;font-size: 14px;&quot;&gt;RDS POSTGRES&lt;/font&gt;&lt;/h3&gt;" style="text;strokeColor=none;align=center;fillColor=none;html=1;verticalAlign=middle;whiteSpace=wrap;rounded=0;" vertex="1" parent="ODpNkwMlUyrVwhqXqqqU-3">
          <mxGeometry x="122.13" y="600" width="125.25" height="30" as="geometry" />
        </mxCell>
        <mxCell id="ODpNkwMlUyrVwhqXqqqU-8" value="" style="image;aspect=fixed;perimeter=ellipsePerimeter;html=1;align=center;shadow=0;dashed=0;spacingTop=3;image=img/lib/active_directory/internet_cloud.svg;" vertex="1" parent="1">
          <mxGeometry x="900.5" y="330" width="150" height="94.5" as="geometry" />
        </mxCell>
        <mxCell id="ODpNkwMlUyrVwhqXqqqU-37" style="edgeStyle=orthogonalEdgeStyle;rounded=0;orthogonalLoop=1;jettySize=auto;html=1;exitX=0.5;exitY=0;exitDx=0;exitDy=0;exitPerimeter=0;entryX=0.5;entryY=1;entryDx=0;entryDy=0;flowAnimation=1;textShadow=0;ignoreEdge=0;orthogonal=0;enumerate=0;comic=0;backgroundOutline=0;snapToPoint=0;" edge="1" parent="1" source="ODpNkwMlUyrVwhqXqqqU-9" target="ODpNkwMlUyrVwhqXqqqU-8">
          <mxGeometry relative="1" as="geometry" />
        </mxCell>
        <mxCell id="ODpNkwMlUyrVwhqXqqqU-9" value="" style="outlineConnect=0;dashed=0;verticalLabelPosition=bottom;verticalAlign=top;align=center;html=1;shape=mxgraph.aws3.internet_gateway;fillColor=#F58534;gradientColor=none;" vertex="1" parent="1">
          <mxGeometry x="945.5" y="580" width="89" height="92" as="geometry" />
        </mxCell>
        <mxCell id="ODpNkwMlUyrVwhqXqqqU-40" style="edgeStyle=orthogonalEdgeStyle;rounded=0;orthogonalLoop=1;jettySize=auto;html=1;exitX=0.25;exitY=1;exitDx=0;exitDy=0;entryX=0.5;entryY=0;entryDx=0;entryDy=0;entryPerimeter=0;flowAnimation=1;textShadow=0;ignoreEdge=0;orthogonal=0;enumerate=0;comic=0;backgroundOutline=0;snapToPoint=0;" edge="1" parent="1" source="ODpNkwMlUyrVwhqXqqqU-8" target="ODpNkwMlUyrVwhqXqqqU-9">
          <mxGeometry relative="1" as="geometry" />
        </mxCell>
        <mxCell id="ODpNkwMlUyrVwhqXqqqU-41" value="&lt;h3&gt;&lt;font style=&quot;font-size: 14px;&quot;&gt;INTERNET GATEWAY&lt;/font&gt;&lt;/h3&gt;" style="text;strokeColor=none;align=center;fillColor=none;html=1;verticalAlign=middle;whiteSpace=wrap;rounded=0;" vertex="1" parent="1">
          <mxGeometry x="1010" y="600" width="125.25" height="30" as="geometry" />
        </mxCell>
        <mxCell id="ODpNkwMlUyrVwhqXqqqU-42" style="edgeStyle=orthogonalEdgeStyle;rounded=0;orthogonalLoop=1;jettySize=auto;html=1;entryX=0.5;entryY=0;entryDx=0;entryDy=0;entryPerimeter=0;flowAnimation=1;textShadow=0;ignoreEdge=0;orthogonal=0;enumerate=0;comic=0;backgroundOutline=0;snapToPoint=0;" edge="1" parent="1" source="ODpNkwMlUyrVwhqXqqqU-9" target="ODpNkwMlUyrVwhqXqqqU-14">
          <mxGeometry relative="1" as="geometry" />
        </mxCell>
        <mxCell id="ODpNkwMlUyrVwhqXqqqU-44" style="edgeStyle=orthogonalEdgeStyle;rounded=0;orthogonalLoop=1;jettySize=auto;html=1;entryX=0.145;entryY=0.855;entryDx=0;entryDy=0;entryPerimeter=0;flowAnimation=1;textShadow=0;ignoreEdge=0;orthogonal=0;enumerate=0;comic=0;backgroundOutline=0;snapToPoint=0;" edge="1" parent="1" source="ODpNkwMlUyrVwhqXqqqU-15" target="ODpNkwMlUyrVwhqXqqqU-9">
          <mxGeometry relative="1" as="geometry">
            <Array as="points">
              <mxPoint x="750" y="930" />
              <mxPoint x="750" y="659" />
            </Array>
          </mxGeometry>
        </mxCell>
      </root>
    </mxGraphModel>
  </diagram>
</mxfile>
